<svg width="21" height="21" viewBox="0 0 21 21" fill="none" xmlns="http://www.w3.org/2000/svg">
<path fill-rule="evenodd" clip-rule="evenodd" d="M1.909 5.25027C1.90894 4.59058 2.10418 3.94563 2.47011 3.39673C2.83604 2.84783 3.35628 2.41954 3.96525 2.16584C4.57422 1.91215 5.24467 1.84441 5.89207 1.97117C6.53948 2.09792 7.13488 2.41349 7.60321 2.87811L7.99173 3.26376L8.52154 3.12248C9.81705 2.77436 11.1814 2.77363 12.4773 3.12036C13.7732 3.46709 14.9549 4.14905 15.9034 5.0976C16.852 6.04616 17.534 7.22783 17.8807 8.5237C18.2274 9.81958 18.2267 11.1839 17.8786 12.4794L17.7373 13.0092L18.1229 13.3977C18.7496 14.0243 19.1016 14.8742 19.1016 15.7604C19.1016 16.6465 18.7496 17.4964 18.1229 18.123C17.4963 18.7496 16.6465 19.1016 15.7603 19.1016C14.8741 19.1016 14.0243 18.7496 13.3977 18.123L13.0091 17.7373L12.4793 17.8786C11.1838 18.2269 9.81928 18.2278 8.52325 17.8812C7.22722 17.5345 6.04538 16.8526 5.09669 15.904C4.148 14.9554 3.46594 13.7737 3.11916 12.4777C2.77239 11.1817 2.77314 9.81726 3.12134 8.52167L3.26263 7.99187L2.87697 7.60335C2.25534 6.97818 1.90721 6.13189 1.909 5.25027ZM5.25011 3.98462e-06C4.26029 4.42736e-05 3.29065 0.279881 2.45302 0.807238C1.61539 1.33459 0.943891 2.08799 0.515982 2.98052C0.0880727 3.87305 -0.0788179 4.86837 0.0345596 5.85166C0.147937 6.83495 0.536964 7.76617 1.15677 8.5379C1.02196 9.18341 0.954145 9.84111 0.954393 10.5005C0.954393 15.7728 5.22816 20.0465 10.5004 20.0465C11.1725 20.0465 11.8292 19.9768 12.4631 19.8441C13.4719 20.6538 14.7441 21.0627 16.0357 20.9922C17.3274 20.9217 18.5475 20.3769 19.4622 19.4622C20.3769 18.5475 20.9217 17.3274 20.9922 16.0358C21.0627 14.7441 20.6538 13.472 19.8441 12.4632C19.9777 11.8293 20.0465 11.1726 20.0465 10.5005C20.0465 5.22832 15.7727 0.954598 10.5004 0.954598C9.82839 0.954598 9.17163 1.02428 8.53777 1.15697C7.60635 0.40686 6.44603 -0.00147149 5.25011 3.98462e-06ZM9.20408 7.95177C9.33104 7.71026 9.76443 7.39811 10.4355 7.39811C11.5877 7.39811 12.2225 7.84868 12.5146 8.07205C12.7159 8.22573 12.97 8.29316 13.221 8.2595C13.472 8.22584 13.6993 8.09386 13.853 7.89259C14.0067 7.69132 14.0741 7.43724 14.0405 7.18625C14.0068 6.93526 13.8748 6.70793 13.6735 6.55425C13.2058 6.19723 12.1681 5.48892 10.4355 5.48892C9.22508 5.48892 8.04233 6.05595 7.46861 7.14991C7.27391 7.51445 7.17823 7.92367 7.19113 8.33674C7.20402 8.74981 7.32505 9.15227 7.54212 9.50395C7.95164 10.1846 8.66091 10.6705 9.49715 10.8957L10.9806 11.2948C11.5515 11.4485 12.4192 11.9792 12.107 12.6942C11.918 13.1257 11.2508 13.603 10.2675 13.603C9.41791 13.603 8.66759 13.456 7.97646 12.929C7.77494 12.7789 7.52237 12.7143 7.27354 12.7493C7.02471 12.7842 6.79968 12.9158 6.64728 13.1156C6.49487 13.3154 6.42738 13.5672 6.45944 13.8164C6.49149 14.0656 6.62052 14.2921 6.81853 14.4468C7.74449 15.1532 8.70578 15.5122 10.0565 15.5122C11.5639 15.5122 13.2086 14.9413 13.8559 13.4598C14.2377 12.5863 14.1117 11.6709 13.6363 10.9368C12.9022 9.80655 11.6402 9.47913 10.4174 9.16315C10.2759 9.12665 10.1346 9.08942 9.99354 9.05147C9.49142 8.91687 8.90529 8.52358 9.20408 7.95177Z" fill="white"/>
</svg>
