<svg width="27" height="21" viewBox="0 0 27 21" fill="none" xmlns="http://www.w3.org/2000/svg">
<path d="M20.6429 20L20.1877 20.5961C20.3241 20.7003 20.4923 20.7545 20.6639 20.7497L20.6429 20ZM18.5977 17.2809C18.3222 16.9715 17.8482 16.944 17.5388 17.2195C17.2295 17.495 17.202 17.969 17.4775 18.2784L18.5977 17.2809ZM19.4503 16.6408L19.2159 15.9284C19.2067 15.9314 19.1975 15.9346 19.1884 15.938L19.4503 16.6408ZM16.3467 17.457L16.2347 16.7153L16.2238 16.7171L16.3467 17.457ZM10.8031 17.438L10.6765 18.1773L10.6806 18.178L10.8031 17.438ZM7.65669 16.622L7.4108 17.3306L7.41147 17.3308L7.65669 16.622ZM6.09402 15.9767L5.71142 16.6218C5.72745 16.6313 5.74384 16.6402 5.76054 16.6485L6.09402 15.9767ZM5.90147 15.8818L6.28343 15.2363C6.25824 15.2214 6.2322 15.208 6.20544 15.1961L5.90147 15.8818ZM5.81588 15.8249L6.31345 15.2638C6.26331 15.2193 6.20744 15.1818 6.14733 15.1521L5.81588 15.8249ZM9.52249 18.2403C9.79789 17.9309 9.77032 17.4568 9.46092 17.1814C9.15152 16.906 8.67745 16.9336 8.40205 17.243L9.52249 18.2403ZM6.35714 20L6.33609 20.7497C6.51086 20.7546 6.68185 20.6983 6.81951 20.5905L6.35714 20ZM1 16.4322H0.25C0.25 16.4774 0.254077 16.5224 0.26218 16.5668L1 16.4322ZM4.08217 2.99286L3.66686 2.36834C3.54403 2.45002 3.44801 2.56612 3.39082 2.70209L4.08217 2.99286ZM10.0967 1.00016L10.8424 0.920056C10.802 0.544566 10.4888 0.257633 10.1112 0.250299L10.0967 1.00016ZM9.56502 3.07309C9.60926 3.48493 9.97899 3.78294 10.3908 3.7387C10.8027 3.69446 11.1007 3.32473 11.0564 2.91289L9.56502 3.07309ZM15.8613 2.96136C15.8019 3.37129 16.0861 3.75175 16.496 3.81113C16.9059 3.87052 17.2864 3.58634 17.3458 3.1764L15.8613 2.96136ZM16.9032 1.00029L16.8886 0.25043C16.5215 0.257575 16.2136 0.529411 16.1609 0.892766L16.9032 1.00029ZM22.9177 2.99299L23.609 2.70221C23.5518 2.56624 23.4558 2.45016 23.333 2.36848L22.9177 2.99299ZM26 16.4322L26.7378 16.5669C26.7459 16.5224 26.75 16.4774 26.75 16.4322H26ZM11.6805 12.5606L10.9305 12.5466V12.5606H11.6805ZM20.6429 20C21.0981 19.4039 21.0981 19.404 21.0981 19.404C21.0981 19.4039 21.0981 19.4039 21.0981 19.4039C21.098 19.4039 21.098 19.4039 21.0979 19.4038C21.0977 19.4037 21.0974 19.4034 21.097 19.4031C21.0962 19.4025 21.0949 19.4015 21.0931 19.4002C21.0896 19.3975 21.0843 19.3934 21.0773 19.388C21.0633 19.3773 21.0424 19.3612 21.0155 19.3405C20.9617 19.2989 20.8838 19.2386 20.7882 19.1638C20.5968 19.014 20.3353 18.8072 20.0546 18.5787C19.475 18.1068 18.872 17.5889 18.5977 17.2809L17.4775 18.2784C17.8454 18.6915 18.5449 19.2838 19.1075 19.7419C19.3978 19.9782 19.6673 20.1913 19.864 20.3452C19.9624 20.4222 20.0429 20.4846 20.099 20.5279C20.127 20.5495 20.1489 20.5664 20.164 20.5779C20.1715 20.5837 20.1773 20.5882 20.1813 20.5912C20.1833 20.5927 20.1848 20.5939 20.1859 20.5947C20.1864 20.5951 20.1868 20.5954 20.1871 20.5957C20.1873 20.5958 20.1874 20.5959 20.1875 20.5959C20.1875 20.596 20.1876 20.596 20.1876 20.596C20.1876 20.596 20.1877 20.5961 20.6429 20ZM21.5336 14.8736C20.7024 15.3589 19.916 15.698 19.2159 15.9284L19.6847 17.3532C20.4828 17.0906 21.3659 16.7085 22.2899 16.1689L21.5336 14.8736ZM19.1884 15.938C18.164 16.3196 17.1867 16.5716 16.2347 16.7154L16.4587 18.1986C17.5186 18.0385 18.5962 17.7593 19.7121 17.3436L19.1884 15.938ZM16.2238 16.7171C14.2651 17.0427 12.4659 16.9531 10.9256 16.6981L10.6806 18.178C12.3507 18.4544 14.3187 18.5544 16.4697 18.1968L16.2238 16.7171ZM10.9296 16.6988C9.75866 16.4983 8.75022 16.2067 7.9019 15.9132L7.41147 17.3308C8.31808 17.6444 9.40724 17.96 10.6765 18.1773L10.9296 16.6988ZM7.90257 15.9135C7.4291 15.7492 6.92549 15.5521 6.4275 15.3049L5.76054 16.6485C6.33301 16.9327 6.89956 17.1531 7.41081 17.3306L7.90257 15.9135ZM6.47663 15.3317C6.40082 15.2867 6.32916 15.2557 6.30191 15.2437C6.26476 15.2272 6.27205 15.2296 6.28343 15.2363L5.51951 16.5272C5.59513 16.572 5.66665 16.6028 5.6937 16.6148C5.73064 16.6312 5.72314 16.6287 5.71142 16.6218L6.47663 15.3317ZM6.20544 15.1961C6.22849 15.2063 6.25581 15.2213 6.28379 15.2411C6.308 15.2582 6.3252 15.2742 6.31345 15.2638L5.3183 16.3861C5.35907 16.4223 5.44909 16.5016 5.59751 16.5674L6.20544 15.1961ZM6.14733 15.1521C5.96748 15.0635 5.82933 14.9891 5.7382 14.9381C5.69266 14.9125 5.65892 14.8929 5.63766 14.8804C5.62703 14.8741 5.61952 14.8696 5.61522 14.867C5.61307 14.8657 5.61173 14.8648 5.61119 14.8645C5.61093 14.8643 5.61086 14.8643 5.611 14.8644C5.61107 14.8644 5.6112 14.8645 5.61137 14.8646C5.61146 14.8647 5.61156 14.8647 5.61167 14.8648C5.61172 14.8648 5.61178 14.8649 5.61185 14.8649C5.61188 14.8649 5.61193 14.865 5.61194 14.865C5.61199 14.865 5.61204 14.865 5.21656 15.5023C4.82108 16.1395 4.82113 16.1396 4.82118 16.1396C4.8212 16.1396 4.82126 16.1397 4.8213 16.1397C4.82137 16.1397 4.82145 16.1398 4.82153 16.1398C4.8217 16.1399 4.82187 16.14 4.82206 16.1402C4.82245 16.1404 4.82288 16.1407 4.82337 16.141C4.82434 16.1416 4.82553 16.1423 4.82692 16.1431C4.82971 16.1449 4.83334 16.1471 4.8378 16.1498C4.84671 16.1552 4.85894 16.1625 4.8744 16.1717C4.90531 16.1899 4.94917 16.2154 5.00529 16.2468C5.11751 16.3097 5.27902 16.3965 5.48442 16.4977L6.14733 15.1521ZM8.40205 17.243C8.12504 17.5542 7.51884 18.0832 6.93965 18.5644C6.65857 18.798 6.39681 19.0097 6.20518 19.1631C6.10945 19.2397 6.03145 19.3016 5.97755 19.3443C5.9506 19.3656 5.9297 19.382 5.91564 19.3931C5.9086 19.3986 5.90328 19.4028 5.89977 19.4056C5.89802 19.4069 5.89671 19.408 5.89587 19.4086C5.89546 19.4089 5.89515 19.4092 5.89497 19.4093C5.89488 19.4094 5.89482 19.4094 5.89478 19.4095C5.89477 19.4095 5.89476 19.4095 5.89475 19.4095C5.89476 19.4095 5.89477 19.4095 6.35714 20C6.81951 20.5905 6.81954 20.5905 6.81958 20.5905C6.8196 20.5905 6.81964 20.5904 6.81968 20.5904C6.81977 20.5903 6.81989 20.5902 6.82003 20.5901C6.82032 20.5899 6.82073 20.5896 6.82126 20.5892C6.82232 20.5883 6.82384 20.5871 6.82582 20.5856C6.82977 20.5825 6.83555 20.5779 6.84306 20.572C6.85806 20.5602 6.87996 20.543 6.90795 20.5208C6.96392 20.4766 7.04429 20.4128 7.14264 20.334C7.33915 20.1767 7.60829 19.9591 7.89823 19.7182C8.46111 19.2505 9.15746 18.6504 9.52249 18.2403L8.40205 17.243ZM6.3782 19.2503C4.21826 19.1896 3.08086 18.3883 2.47485 17.6791C2.16253 17.3136 1.97469 16.9525 1.86594 16.6869C1.81172 16.5544 1.77786 16.4474 1.75838 16.3778C1.74867 16.3431 1.7426 16.318 1.73942 16.3041C1.73783 16.2971 1.73696 16.2929 1.73673 16.2918C1.73661 16.2912 1.73665 16.2914 1.73684 16.2923C1.73693 16.2928 1.73706 16.2935 1.73722 16.2944C1.73731 16.2948 1.7374 16.2953 1.7375 16.2958C1.73755 16.2961 1.73763 16.2965 1.73765 16.2967C1.73773 16.2971 1.73782 16.2976 1 16.4322C0.26218 16.5668 0.26227 16.5673 0.262363 16.5678C0.262397 16.568 0.262493 16.5685 0.262561 16.5689C0.262699 16.5696 0.262848 16.5704 0.263009 16.5713C0.263329 16.573 0.263694 16.5749 0.264107 16.5771C0.264931 16.5813 0.265942 16.5864 0.267155 16.5924C0.26958 16.6042 0.272813 16.6194 0.276969 16.6376C0.285276 16.674 0.297296 16.7228 0.313954 16.7823C0.34723 16.9011 0.399284 17.0635 0.477738 17.2551C0.634323 17.6377 0.898813 18.1437 1.33448 18.6535C2.22443 19.695 3.7656 20.6775 6.33609 20.7497L6.3782 19.2503ZM1.75 16.4322C1.75 13.4842 2.49685 10.2057 3.26008 7.63434C3.6398 6.35507 4.0196 5.26378 4.30414 4.4932C4.44634 4.10811 4.56456 3.80362 4.64682 3.59639C4.68795 3.49278 4.72007 3.41352 4.74168 3.36069C4.75249 3.33428 4.76068 3.31447 4.76604 3.30154C4.76873 3.29508 4.77071 3.29033 4.77196 3.28733C4.77258 3.28583 4.77303 3.28477 4.77329 3.28415C4.77342 3.28384 4.7735 3.28364 4.77354 3.28355C4.77356 3.28351 4.77355 3.28353 4.77356 3.2835C4.77354 3.28355 4.77351 3.28362 4.08217 2.99286C3.39082 2.70209 3.39077 2.70222 3.3907 2.70238C3.39066 2.70247 3.39059 2.70265 3.39051 2.70283C3.39036 2.70319 3.39016 2.70366 3.38992 2.70424C3.38943 2.7054 3.38876 2.70701 3.38791 2.70905C3.3862 2.71315 3.38375 2.719 3.38061 2.72659C3.37431 2.74176 3.36519 2.76386 3.35342 2.79261C3.32989 2.85011 3.29579 2.93427 3.25264 3.04298C3.16634 3.26039 3.04376 3.57618 2.89701 3.97361C2.60365 4.76807 2.21291 5.89082 1.82209 7.20752C1.04423 9.82812 0.25 13.2693 0.25 16.4322H1.75ZM4.49747 3.61737C5.94447 2.65511 7.35613 2.18761 8.40383 1.96093C8.92719 1.84769 9.35737 1.79508 9.65207 1.77074C9.79932 1.75858 9.91238 1.7535 9.98592 1.75141C10.0227 1.75037 10.0495 1.75007 10.0658 1.75001C10.0739 1.74998 10.0794 1.75001 10.0822 1.75003C10.0835 1.75004 10.0842 1.75005 10.0842 1.75005C10.0842 1.75005 10.084 1.75005 10.0837 1.75005C10.0835 1.75004 10.0833 1.75004 10.083 1.75003C10.0829 1.75003 10.0827 1.75003 10.0826 1.75003C10.0824 1.75002 10.0821 1.75002 10.0967 1.00016C10.1112 0.250299 10.111 0.250294 10.1107 0.250289C10.1106 0.250287 10.1103 0.250281 10.11 0.250277C10.1096 0.250269 10.1091 0.250261 10.1086 0.250252C10.1075 0.250234 10.1063 0.250215 10.1048 0.250195C10.102 0.250156 10.0984 0.250115 10.0942 0.250081C10.0856 0.250013 10.0743 0.249971 10.0602 0.250024C10.032 0.25013 9.99282 0.250613 9.94338 0.252016C9.84452 0.254821 9.70441 0.261307 9.52859 0.275831C9.17717 0.30486 8.68162 0.366116 8.08663 0.494849C6.89761 0.752105 5.30203 1.28095 3.66686 2.36834L4.49747 3.61737ZM9.35096 1.08026L9.56502 3.07309L11.0564 2.91289L10.8424 0.920056L9.35096 1.08026ZM17.3458 3.1764L17.6454 1.10781L16.1609 0.892766L15.8613 2.96136L17.3458 3.1764ZM16.9032 1.00029C16.9178 1.75015 16.9175 1.75015 16.9173 1.75016C16.9172 1.75016 16.917 1.75016 16.9169 1.75016C16.9166 1.75017 16.9164 1.75017 16.9162 1.75017C16.9158 1.75018 16.9157 1.75018 16.9157 1.75018C16.9157 1.75018 16.9164 1.75017 16.9177 1.75016C16.9205 1.75014 16.926 1.75011 16.9341 1.75014C16.9504 1.7502 16.9772 1.7505 17.014 1.75154C17.0875 1.75362 17.2006 1.75869 17.3478 1.77085C17.6425 1.79519 18.0727 1.84778 18.596 1.96101C19.6437 2.18767 21.0554 2.65518 22.5024 3.61749L23.333 2.36848C21.6978 1.28102 20.1022 0.75217 18.9132 0.494929C18.3182 0.366203 17.8227 0.304959 17.4712 0.27594C17.2954 0.261422 17.1553 0.254941 17.0564 0.252139C17.007 0.250738 16.9678 0.250257 16.9396 0.250152C16.9255 0.2501 16.9142 0.250142 16.9056 0.250211C16.9014 0.250245 16.8978 0.250286 16.895 0.250326C16.8935 0.250345 16.8923 0.250364 16.8912 0.250382C16.8907 0.250391 16.8902 0.2504 16.8898 0.250408C16.8896 0.250412 16.8893 0.250417 16.8891 0.250419C16.8889 0.250425 16.8886 0.25043 16.9032 1.00029ZM22.9177 2.99299C22.2263 3.28377 22.2263 3.28369 22.2263 3.28365C22.2263 3.28367 22.2263 3.28366 22.2263 3.2837C22.2264 3.28379 22.2264 3.28399 22.2266 3.2843C22.2268 3.28492 22.2273 3.28598 22.2279 3.28748C22.2292 3.29047 22.2311 3.29522 22.2338 3.30169C22.2392 3.31462 22.2474 3.33442 22.2582 3.36084C22.2798 3.41367 22.3119 3.49292 22.353 3.59653C22.4353 3.80376 22.5535 4.10824 22.6957 4.49333C22.9803 5.2639 23.3601 6.35516 23.7398 7.63442C24.5031 10.2057 25.25 13.4842 25.25 16.4322H26.75C26.75 13.2693 25.9557 9.82815 25.1778 7.20757C24.787 5.89089 24.3962 4.76815 24.1029 3.9737C23.9561 3.57628 23.8335 3.2605 23.7472 3.04309C23.7041 2.93438 23.67 2.85022 23.6464 2.79272C23.6347 2.76397 23.6255 2.74188 23.6192 2.7267C23.6161 2.71912 23.6136 2.71326 23.6119 2.70917C23.6111 2.70712 23.6104 2.70552 23.6099 2.70435C23.6097 2.70377 23.6095 2.7033 23.6093 2.70295C23.6093 2.70277 23.6092 2.70258 23.6091 2.70249C23.6091 2.70234 23.609 2.70221 22.9177 2.99299ZM26 16.4322C25.2622 16.2976 25.2623 16.2971 25.2624 16.2966C25.2624 16.2965 25.2625 16.2961 25.2625 16.2958C25.2626 16.2953 25.2627 16.2948 25.2628 16.2943C25.2629 16.2935 25.2631 16.2928 25.2632 16.2923C25.2634 16.2914 25.2634 16.2912 25.2633 16.2917C25.263 16.2929 25.2622 16.2971 25.2606 16.304C25.2574 16.318 25.2513 16.3431 25.2416 16.3778C25.2221 16.4473 25.1883 16.5544 25.1341 16.6869C25.0253 16.9525 24.8374 17.3136 24.5251 17.6791C23.9191 18.3883 22.7817 19.1896 20.6218 19.2503L20.6639 20.7497C23.2343 20.6775 24.7755 19.695 25.6655 18.6535C26.1011 18.1437 26.3656 17.6377 26.5222 17.2551C26.6007 17.0635 26.6528 16.9012 26.686 16.7823C26.7027 16.7229 26.7147 16.674 26.723 16.6376C26.7272 16.6194 26.7304 16.6042 26.7328 16.5924C26.7341 16.5865 26.7351 16.5814 26.7359 16.5771C26.7363 16.575 26.7367 16.573 26.737 16.5713C26.7371 16.5705 26.7373 16.5697 26.7374 16.5689C26.7375 16.5686 26.7376 16.568 26.7376 16.5679C26.7377 16.5674 26.7378 16.5669 26 16.4322ZM9.49735 9.70411C7.884 9.70411 6.56431 10.9682 6.56431 12.5606H8.06431C8.06431 11.8377 8.67073 11.2041 9.49735 11.2041V9.70411ZM6.56431 12.5606C6.56431 14.1578 7.91019 15.4172 9.49735 15.4172V13.9172C8.68726 13.9172 8.06431 13.2789 8.06431 12.5606H6.56431ZM9.49735 15.4172C11.1109 15.4172 12.4305 14.1531 12.4305 12.5606H10.9305C10.9305 13.2836 10.3241 13.9172 9.49735 13.9172V15.4172ZM12.4304 12.5745C12.4604 10.9588 11.0974 9.70411 9.49735 9.70411V11.2041C10.3373 11.2041 10.9437 11.8472 10.9307 12.5467L12.4304 12.5745ZM17.3099 9.70411C15.6965 9.70411 14.3766 10.9681 14.3766 12.5606H15.8766C15.8766 11.8378 16.4831 11.2041 17.3099 11.2041V9.70411ZM14.3766 12.5606C14.3766 14.1579 15.7229 15.4172 17.3099 15.4172V13.9172C16.4997 13.9172 15.8766 13.2788 15.8766 12.5606H14.3766ZM17.3099 15.4172C18.9233 15.4172 20.243 14.153 20.243 12.5606H18.743C18.743 13.2836 18.1365 13.9172 17.3099 13.9172V15.4172ZM20.243 12.5606C20.243 10.9682 18.9233 9.70411 17.3099 9.70411V11.2041C18.1366 11.2041 18.743 11.8377 18.743 12.5606H20.243ZM6.68364 5.63365C9.27346 4.38133 11.4079 3.78435 13.5041 3.78343C15.5999 3.78251 17.7313 4.37742 20.315 5.63302L20.9707 4.28389C18.2646 2.96884 15.9031 2.28238 13.5034 2.28343C11.1041 2.28448 8.74061 2.97282 6.03064 4.28325L6.68364 5.63365Z" fill="white"/>
</svg>
