<svg width="22" height="21" viewBox="0 0 22 21" fill="none" xmlns="http://www.w3.org/2000/svg">
<path fill-rule="evenodd" clip-rule="evenodd" d="M2.55852 10.5C2.55852 8.81885 3.06862 7.17547 4.02431 5.77765C4.98001 4.37983 6.33837 3.29037 7.92763 2.64702C9.51689 2.00368 11.2657 1.83535 12.9528 2.16332C14.64 2.4913 16.1897 3.30084 17.4061 4.48959C18.6225 5.67834 19.4508 7.19289 19.7864 8.84173C20.122 10.4906 19.9498 12.1996 19.2915 13.7528C18.6332 15.306 17.5184 16.6335 16.0881 17.5675C14.6578 18.5015 12.9762 19 11.256 19C9.6105 19.0029 7.99827 18.547 6.60849 17.686C6.48486 17.6096 6.3459 17.5599 6.20099 17.5404C6.05607 17.5209 5.90856 17.532 5.76841 17.573L2.82149 18.432L3.9317 15.895C3.99623 15.7473 4.02341 15.5866 4.01094 15.4264C3.99848 15.2663 3.94673 15.1115 3.86007 14.975C3.00662 13.6316 2.5557 12.0813 2.55852 10.5ZM11.256 0C5.32228 0 0.512045 4.701 0.512045 10.5C0.512045 12.338 0.996035 14.068 1.84737 15.573L0.0822857 19.607C0.00589068 19.7817 -0.0179768 19.9741 0.0134786 20.1617C0.044934 20.3492 0.13041 20.5241 0.259896 20.6658C0.389382 20.8076 0.557518 20.9104 0.744612 20.9621C0.931706 21.0138 1.13001 21.0124 1.31631 20.958L5.92087 19.616C7.54477 20.5254 9.38438 21.0027 11.256 21C17.1898 21 22 16.299 22 10.5C22 4.701 17.1898 0 11.256 0ZM13.6023 12.682L12.2567 13.608C11.5154 13.1911 10.8347 12.6789 10.2328 12.085C9.58665 11.4544 9.02797 10.7437 8.57105 9.97099L9.42545 9.262C9.60349 9.11438 9.72451 8.9117 9.76843 8.6876C9.81236 8.4635 9.77655 8.23146 9.66694 8.03L8.57821 6.03C8.50576 5.89717 8.40357 5.78204 8.27924 5.6932C8.15492 5.60435 8.01168 5.54408 7.8602 5.51688C7.70872 5.48967 7.55291 5.49624 7.40439 5.53608C7.25587 5.57593 7.11847 5.64802 7.00243 5.747L6.67909 6.022C5.90245 6.684 5.44302 7.772 5.82366 8.87399C6.43608 10.6171 7.44949 12.1997 8.78593 13.5C10.6411 15.313 12.5259 16.027 13.6289 16.305C14.5171 16.528 15.3572 16.229 15.9496 15.757L16.5543 15.275C16.6818 15.1734 16.7824 15.0432 16.8475 14.8956C16.9125 14.7479 16.9402 14.5871 16.9282 14.4268C16.9161 14.2664 16.8647 14.1113 16.7782 13.9745C16.6918 13.8377 16.5729 13.7233 16.4316 13.641L14.7146 12.641C14.5448 12.542 14.3493 12.4932 14.1517 12.5004C13.9541 12.5077 13.763 12.5708 13.6013 12.682H13.6023Z" fill="white"/>
</svg>
