<svg width="23" height="21" viewBox="0 0 23 21" fill="none" xmlns="http://www.w3.org/2000/svg">
<path fill-rule="evenodd" clip-rule="evenodd" d="M0 4.2C0 3.08609 0.484642 2.0178 1.34731 1.23015C2.20998 0.442499 3.38 0 4.6 0H18.4C19.62 0 20.79 0.442499 21.6527 1.23015C22.5154 2.0178 23 3.08609 23 4.2V16.8C23 17.9139 22.5154 18.9822 21.6527 19.7698C20.79 20.5575 19.62 21 18.4 21H4.6C3.38 21 2.20998 20.5575 1.34731 19.7698C0.484642 18.9822 0 17.9139 0 16.8V4.2ZM4.6 2.1C3.99 2.1 3.40499 2.32125 2.97365 2.71508C2.54232 3.1089 2.3 3.64305 2.3 4.2V16.8C2.3 17.357 2.54232 17.8911 2.97365 18.2849C3.40499 18.6787 3.99 18.9 4.6 18.9H18.4C19.01 18.9 19.595 18.6787 20.0263 18.2849C20.4577 17.8911 20.7 17.357 20.7 16.8V4.2C20.7 3.64305 20.4577 3.1089 20.0263 2.71508C19.595 2.32125 19.01 2.1 18.4 2.1H4.6ZM11.5 7.35C10.585 7.35 9.70748 7.68187 9.06048 8.27261C8.41348 8.86335 8.05 9.66457 8.05 10.5C8.05 11.3354 8.41348 12.1366 9.06048 12.7274C9.70748 13.3181 10.585 13.65 11.5 13.65C12.415 13.65 13.2925 13.3181 13.9395 12.7274C14.5865 12.1366 14.95 11.3354 14.95 10.5C14.95 9.66457 14.5865 8.86335 13.9395 8.27261C13.2925 7.68187 12.415 7.35 11.5 7.35ZM5.75 10.5C5.75 9.10761 6.3558 7.77225 7.43414 6.78769C8.51247 5.80312 9.97501 5.25 11.5 5.25C13.025 5.25 14.4875 5.80312 15.5659 6.78769C16.6442 7.77225 17.25 9.10761 17.25 10.5C17.25 11.8924 16.6442 13.2277 15.5659 14.2123C14.4875 15.1969 13.025 15.75 11.5 15.75C9.97501 15.75 8.51247 15.1969 7.43414 14.2123C6.3558 13.2277 5.75 11.8924 5.75 10.5ZM17.825 6.3C18.2825 6.3 18.7213 6.13406 19.0448 5.83869C19.3683 5.54332 19.55 5.14272 19.55 4.725C19.55 4.30728 19.3683 3.90668 19.0448 3.61131C18.7213 3.31594 18.2825 3.15 17.825 3.15C17.3675 3.15 16.9287 3.31594 16.6052 3.61131C16.2817 3.90668 16.1 4.30728 16.1 4.725C16.1 5.14272 16.2817 5.54332 16.6052 5.83869C16.9287 6.13406 17.3675 6.3 17.825 6.3Z" fill="white"/>
</svg>
