<svg width="50" height="34" viewBox="0 0 50 34" fill="none" xmlns="http://www.w3.org/2000/svg">
<rect x="2.19865" y="1.32292" width="46.0405" height="30.8759" rx="14.5521" fill="white" stroke="#D9D9D9" stroke-width="2.64583"/>
<path fill-rule="evenodd" clip-rule="evenodd" d="M36.5238 16.7934C36.5238 22.9931 31.5015 28.0189 25.3062 28.0189C19.1109 28.0189 14.0886 22.9931 14.0886 16.7934C14.0886 10.5937 19.1109 5.56787 25.3062 5.56787C31.5015 5.56787 36.5238 10.5937 36.5238 16.7934ZM28.0013 12.6229C29.5617 13.1591 30.7031 13.9621 30.4792 15.4563C30.3165 16.5505 29.7081 17.0797 28.8998 17.265C30.0088 17.8405 30.3868 18.9328 30.0356 20.2535C29.3687 22.1541 27.7837 22.3142 25.6754 21.9169L25.1635 23.96L23.9277 23.6526L24.4326 21.6369C24.1122 21.5576 23.7848 21.4726 23.4475 21.3821L22.9405 23.4077L21.7061 23.1002L22.2173 21.0529L19.7281 20.4269L20.3422 19.0161C20.3422 19.0161 21.2533 19.2569 21.2407 19.2393C21.5906 19.3257 21.7462 19.0982 21.8075 18.9473L23.1947 13.402C23.2102 13.1402 23.1193 12.8103 22.6187 12.6854C22.6377 12.672 21.7209 12.4629 21.7209 12.4629L22.0497 11.1469L24.5424 11.7624L25.0494 9.73827L26.2845 10.0457L25.7881 12.0298C26.1205 12.1049 26.4542 12.1814 26.7788 12.2622L27.2718 10.2906L28.5075 10.5981L28.0013 12.6229ZM25.0442 15.9992C25.886 16.2226 27.7178 16.7085 28.0371 15.4343C28.3628 14.1306 26.5832 13.7369 25.7118 13.5441L25.7118 13.5441L25.7117 13.5441C25.613 13.5222 25.526 13.503 25.4549 13.4852L24.8395 15.946C24.8981 15.9605 24.967 15.9787 25.0442 15.9992L25.0442 15.9992ZM24.0904 19.9614C25.0987 20.2271 27.3038 20.8084 27.6547 19.4043C28.0138 17.9687 25.8758 17.4905 24.8326 17.2572L24.8324 17.2572C24.716 17.2311 24.6131 17.2081 24.5289 17.1872L23.8501 19.8991C23.9191 19.9162 23.9999 19.9375 24.0904 19.9614Z" fill="#F7931A"/>
</svg>
