<svg width="50" height="34" viewBox="0 0 50 34" fill="none" xmlns="http://www.w3.org/2000/svg">
<rect x="1.76078" y="1.32292" width="46.0405" height="30.8759" rx="14.5521" fill="white" stroke="#D9D9D9" stroke-width="2.64583"/>
<path fill-rule="evenodd" clip-rule="evenodd" d="M31.2506 26.2946C36.4869 26.2946 40.7319 21.9734 40.7319 16.6428C40.7319 11.3122 36.4869 6.99097 31.2506 6.99097C28.9038 6.99097 26.7561 7.85892 25.1005 9.29669C23.4449 7.85897 21.2973 6.99104 18.9505 6.99104C13.7142 6.99104 9.46924 11.3123 9.46924 16.6429C9.46924 21.9734 13.7142 26.2947 18.9505 26.2947C21.2973 26.2947 23.445 25.4267 25.1006 23.989C26.7562 25.4267 28.9038 26.2946 31.2506 26.2946Z" fill="#ED0006"/>
<path fill-rule="evenodd" clip-rule="evenodd" d="M25.1006 23.9889C27.1392 22.2186 28.4318 19.5844 28.4318 16.6428C28.4318 13.7012 27.1392 11.067 25.1006 9.29669C26.7562 7.85892 28.9039 6.99097 31.2506 6.99097C36.487 6.99097 40.7319 11.3122 40.7319 16.6428C40.7319 21.9734 36.487 26.2946 31.2506 26.2946C28.9039 26.2946 26.7562 25.4267 25.1006 23.9889Z" fill="#F9A000"/>
<path fill-rule="evenodd" clip-rule="evenodd" d="M25.1006 23.9891C27.1392 22.2188 28.4318 19.5845 28.4318 16.643C28.4318 13.7014 27.1392 11.0672 25.1006 9.29688C23.062 11.0672 21.7693 13.7014 21.7693 16.643C21.7693 19.5845 23.062 22.2188 25.1006 23.9891Z" fill="#FF5E00"/>
</svg>
