<svg width="49" height="34" viewBox="0 0 49 34" fill="none" xmlns="http://www.w3.org/2000/svg">
<rect x="1.63652" y="1.32292" width="46.0405" height="30.8759" rx="14.5521" fill="white" stroke="#D9D9D9" stroke-width="2.64583"/>
<path fill-rule="evenodd" clip-rule="evenodd" d="M14.0848 21.2876H11.9209C11.7728 21.2876 11.6469 21.3957 11.6238 21.5424L10.7486 27.1141C10.7312 27.224 10.816 27.3231 10.9271 27.3231H11.9601C12.1082 27.3231 12.2342 27.2151 12.2573 27.0681L12.4933 25.5653C12.5161 25.4181 12.6423 25.3102 12.7901 25.3102H13.4751C14.9006 25.3102 15.7232 24.6176 15.9381 23.2451C16.0349 22.6446 15.9422 22.1728 15.6621 21.8423C15.3546 21.4796 14.8091 21.2876 14.0848 21.2876ZM14.3345 23.3226C14.2162 24.1023 13.6229 24.1023 13.0492 24.1023H12.7227L12.9518 22.6461C12.9654 22.5582 13.0413 22.4934 13.1299 22.4934H13.2796C13.6704 22.4934 14.039 22.4934 14.2295 22.717C14.343 22.8505 14.3778 23.0487 14.3345 23.3226ZM20.5533 23.2976H19.5171C19.4288 23.2976 19.3525 23.3624 19.3389 23.4505L19.293 23.7415L19.2206 23.636C18.9962 23.3091 18.4961 23.1998 17.9967 23.1998C16.8515 23.1998 15.8736 24.0706 15.6831 25.2923C15.5841 25.9016 15.7248 26.4842 16.069 26.8906C16.3849 27.2642 16.8368 27.4199 17.3743 27.4199C18.2969 27.4199 18.8087 26.8241 18.8087 26.8241L18.7624 27.1133C18.745 27.2239 18.8298 27.323 18.9402 27.323H19.8736C20.0221 27.323 20.1473 27.2149 20.1707 27.0679L20.7308 23.5067C20.7485 23.3971 20.664 23.2976 20.5533 23.2976ZM19.1088 25.3227C19.0088 25.9171 18.539 26.3162 17.9398 26.3162C17.6389 26.3162 17.3983 26.2193 17.244 26.0356C17.0908 25.8533 17.0325 25.5937 17.0813 25.3046C17.1747 24.7152 17.6525 24.3032 18.2426 24.3032C18.5368 24.3032 18.776 24.4013 18.9336 24.5866C19.0914 24.7737 19.1541 25.0348 19.1088 25.3227ZM25.0309 23.2974H26.0722C26.2181 23.2974 26.3032 23.4617 26.2203 23.5818L22.7569 28.6015C22.7008 28.6828 22.6084 28.7312 22.5097 28.7312H21.4697C21.3232 28.7312 21.2377 28.5657 21.3225 28.4452L22.4009 26.9168L21.254 23.5369C21.2143 23.4195 21.3007 23.2974 21.4251 23.2974H22.4484C22.5813 23.2974 22.6986 23.3851 22.737 23.5128L23.3457 25.5541L24.7819 23.4299C24.8382 23.347 24.9316 23.2974 25.0309 23.2974Z" fill="#253B80"/>
<path fill-rule="evenodd" clip-rule="evenodd" d="M36.3212 27.1141L37.2092 21.4406C37.2229 21.3525 37.2989 21.2876 37.3871 21.2874H38.3869C38.4973 21.2874 38.5821 21.3867 38.5647 21.4967L37.6889 27.0681C37.6661 27.2151 37.5402 27.3232 37.3918 27.3232H36.4989C36.3885 27.3232 36.3037 27.2241 36.3212 27.1141ZM29.5199 21.2876H27.3555C27.2078 21.2876 27.0819 21.3957 27.0587 21.5424L26.1836 27.1141C26.1661 27.2241 26.2509 27.3232 26.3615 27.3232H27.4719C27.5752 27.3232 27.6635 27.2476 27.6796 27.1447L27.9279 25.5654C27.9508 25.4182 28.077 25.3103 28.2247 25.3103H28.9094C30.3352 25.3103 31.1576 24.6176 31.3727 23.2451C31.4698 22.6447 31.3765 22.1729 31.0966 21.8424C30.7892 21.4797 30.2441 21.2876 29.5199 21.2876ZM29.7695 23.3226C29.6515 24.1023 29.0582 24.1023 28.4842 24.1023H28.1579L28.3874 22.6462C28.401 22.5582 28.4763 22.4934 28.5652 22.4934H28.7148C29.1053 22.4934 29.4743 22.4934 29.6647 22.717C29.7783 22.8505 29.8129 23.0487 29.7695 23.3226ZM35.9878 23.2976H34.9522C34.8632 23.2976 34.7877 23.3625 34.7743 23.4505L34.7285 23.7415L34.6557 23.6361C34.4314 23.3091 33.9315 23.1999 33.4322 23.1999C32.287 23.1999 31.3093 24.0707 31.1188 25.2923C31.0201 25.9016 31.1603 26.4843 31.5045 26.8906C31.8209 27.2642 32.2722 27.4199 32.8097 27.4199C33.7324 27.4199 34.244 26.8242 34.244 26.8242L34.1979 27.1134C34.1804 27.224 34.2652 27.323 34.3763 27.323H35.3094C35.4571 27.323 35.583 27.215 35.6062 27.068L36.1665 23.5067C36.1837 23.3972 36.0989 23.2976 35.9878 23.2976ZM34.5434 25.3228C34.444 25.9172 33.9735 26.3162 33.3742 26.3162C33.0739 26.3162 32.8329 26.2193 32.6784 26.0357C32.5252 25.8534 32.4677 25.5937 32.5159 25.3047C32.6097 24.7153 33.0869 24.3033 33.677 24.3033C33.9713 24.3033 34.2104 24.4014 34.3681 24.5866C34.5266 24.7738 34.5892 25.0349 34.5434 25.3228Z" fill="#179BD7"/>
<path d="M22.0931 19.2945L22.3591 17.5978L21.7666 17.584H18.9369L20.9034 5.06388C20.9094 5.02608 20.9293 4.99084 20.9583 4.96582C20.9873 4.94079 21.0245 4.927 21.0631 4.927H25.8344C27.4184 4.927 28.5115 5.25797 29.0823 5.91122C29.3498 6.21768 29.5202 6.53792 29.6027 6.89034C29.6891 7.26013 29.6907 7.70193 29.6062 8.24078L29.6 8.28011V8.62537L29.8677 8.77759C30.093 8.8976 30.272 9.035 30.4093 9.19231C30.6383 9.45433 30.7864 9.78734 30.8489 10.1821C30.9135 10.5882 30.8921 11.0714 30.7864 11.6184C30.6642 12.2477 30.4669 12.7957 30.2004 13.2441C29.9551 13.6573 29.6428 14 29.272 14.2656C28.918 14.5179 28.4973 14.7095 28.0217 14.8321C27.5608 14.9526 27.0354 15.0134 26.4591 15.0134H26.0877C25.8223 15.0134 25.5642 15.1094 25.3619 15.2816C25.1589 15.4573 25.0245 15.6972 24.9834 15.9598L24.9554 16.1126L24.4854 19.1029L24.464 19.2128C24.4584 19.2476 24.4488 19.265 24.4346 19.2767C24.4218 19.2873 24.4035 19.2945 24.3857 19.2945H22.0931Z" fill="#253B80"/>
<path d="M30.121 8.32007C30.1068 8.41149 30.0905 8.50495 30.0722 8.60098C29.4429 11.8448 27.2903 12.9654 24.5409 12.9654H23.141C22.8048 12.9654 22.5215 13.2105 22.4691 13.5435L21.7523 18.1077L21.5494 19.4014C21.5153 19.62 21.6832 19.8172 21.9029 19.8172H24.3858C24.6798 19.8172 24.9295 19.6027 24.9758 19.3115L25.0002 19.1848L25.4677 16.2061L25.4978 16.0427C25.5434 15.7506 25.7937 15.5361 26.0877 15.5361H26.459C28.8645 15.5361 30.7477 14.5554 31.2981 11.7176C31.528 10.5321 31.409 9.54231 30.8006 8.84614C30.6165 8.63622 30.3881 8.46205 30.121 8.32007Z" fill="#179BD7"/>
<path d="M29.4625 8.05661C29.3664 8.02851 29.2671 8.00297 29.1654 7.97999C29.0632 7.95753 28.9583 7.9376 28.8506 7.92024C28.4731 7.85895 28.0596 7.82983 27.6165 7.82983H23.8768C23.7847 7.82983 23.6973 7.85077 23.6189 7.88857C23.4464 7.97182 23.3183 8.13578 23.2873 8.3365L22.4916 13.396L22.4688 13.5436C22.5212 13.2106 22.8045 12.9655 23.1407 12.9655H24.5405C27.29 12.9655 29.4427 11.8444 30.0719 8.60107C30.0906 8.50505 30.1064 8.41158 30.1206 8.32016C29.9615 8.23537 29.789 8.16285 29.6033 8.10104C29.5576 8.08572 29.5103 8.07091 29.4625 8.05661Z" fill="#222D65"/>
<path d="M23.2873 8.3366C23.3184 8.13586 23.4466 7.97192 23.619 7.88917C23.6979 7.85137 23.7849 7.83043 23.8768 7.83043H27.6167C28.0598 7.83043 28.4733 7.85954 28.8506 7.92084C28.9585 7.9382 29.0634 7.95812 29.1656 7.98059C29.2673 8.00358 29.3665 8.02912 29.4627 8.05721C29.5104 8.07151 29.5577 8.08632 29.604 8.10114C29.7896 8.16293 29.9621 8.23597 30.1213 8.32025C30.3086 7.12151 30.1198 6.30532 29.4744 5.56625C28.7628 4.75263 27.4783 4.4043 25.8348 4.4043H21.0634C20.7277 4.4043 20.4414 4.64945 20.3894 4.98297L18.4021 17.6318C18.3629 17.8821 18.5551 18.1079 18.8064 18.1079H21.7522L22.4918 13.3961L23.2873 8.3366Z" fill="#253B80"/>
</svg>
