<svg width="49" height="34" viewBox="0 0 49 34" fill="none" xmlns="http://www.w3.org/2000/svg">
<rect x="1.32292" y="1.32292" width="46.0405" height="30.8759" rx="14.5521" fill="white" stroke="#D9D9D9" stroke-width="2.64583"/>
<path fill-rule="evenodd" clip-rule="evenodd" d="M14.7801 22.6162H11.8306L9.61888 14.1783C9.5139 13.7902 9.291 13.447 8.96312 13.2853C8.14487 12.8789 7.24321 12.5554 6.25958 12.3923V12.0674H11.0109C11.6667 12.0674 12.1585 12.5554 12.2404 13.1222L13.388 19.2087L16.336 12.0674H19.2035L14.7801 22.6162ZM20.8429 22.6162H18.0574L20.3511 12.0674H23.1366L20.8429 22.6162ZM26.7403 14.9896C26.8223 14.4214 27.3141 14.0966 27.8879 14.0966C28.7896 14.015 29.7717 14.1781 30.5914 14.5832L31.0833 12.312C30.2636 11.9871 29.3619 11.824 28.5436 11.824C25.8401 11.824 23.8728 13.2851 23.8728 15.313C23.8728 16.8558 25.2663 17.6658 26.25 18.1538C27.3141 18.6404 27.724 18.9652 27.642 19.4518C27.642 20.1817 26.8223 20.5065 26.004 20.5065C25.0204 20.5065 24.0368 20.2632 23.1366 19.8568L22.6448 22.1294C23.6284 22.5344 24.6925 22.6976 25.6762 22.6976C28.7076 22.7777 30.5914 21.318 30.5914 19.1269C30.5914 16.3678 26.7403 16.206 26.7403 14.9896ZM40.3401 22.6162L38.1283 12.0674H35.7527C35.2609 12.0674 34.769 12.3923 34.6051 12.8789L30.5095 22.6162H33.377L33.9494 21.0749H37.4726L37.8005 22.6162H40.3401ZM36.1624 14.9079L36.9807 18.8836H34.687L36.1624 14.9079Z" fill="#172B85"/>
</svg>
