<svg width="93" height="92" viewBox="0 0 93 92" fill="none" xmlns="http://www.w3.org/2000/svg">
<path d="M53.717 18.4C54.1039 23.7544 54.4724 28.3912 54.7857 33.028C55.3384 41.0872 55.9281 49.1464 56.2782 57.224C56.3334 58.512 55.6701 60.3888 54.6935 61.1064C49.8659 64.6208 44.7988 67.8592 39.8238 71.1896C39.4369 70.9872 39.0683 70.7664 38.6814 70.564C39.2342 69.552 39.5474 68.2824 40.3582 67.5648C43.3616 64.86 46.6598 62.468 49.5527 59.6712C50.5661 58.696 51.34 56.8008 51.1926 55.4576C50.345 47.9504 49.6264 40.3696 47.9496 33.028C46.5308 26.772 49.608 23 53.717 18.4Z" fill="url(#paint0_linear_737_163)"/>
<path d="M47.231 59.3216C45.4437 52.716 43.2325 46.1656 42.127 39.4496C41.7585 37.26 44.246 34.5736 45.4252 32.1264C45.8859 32.2 46.3465 32.2552 46.7887 32.3288C47.1941 35.42 47.5995 38.4928 48.0233 41.584C48.6313 46.0736 49.4052 50.5632 49.7553 55.0896C49.8659 56.5248 48.9077 58.052 48.4471 59.5424C48.0417 59.4504 47.6363 59.3952 47.231 59.3216Z" fill="url(#paint1_linear_737_163)"/>
<path d="M40.9109 41.8232C44.7251 50.416 46.3281 60.0208 44.246 62.0632C42.385 57.2792 40.2844 52.6976 38.9209 47.9136C38.4971 46.4232 40.0265 44.3624 40.9109 41.8232Z" fill="url(#paint2_linear_737_163)"/>
<path d="M38.5524 50.7656C39.8238 55.292 43.0483 59.34 42.6429 64.2712C42.1086 64.4552 41.5927 64.6392 41.0583 64.8232C39.3631 61.456 37.4284 58.1624 36.1017 54.648C35.7148 53.5992 36.9678 51.9432 37.4837 50.5632C37.8522 50.6368 38.2023 50.7104 38.5524 50.7656Z" fill="url(#paint3_linear_737_163)"/>
<path d="M35.899 58.236C40.0449 64.0688 40.3765 65.412 38.276 67.4544C33.909 62.468 33.3931 60.4808 35.899 58.236Z" fill="url(#paint4_linear_737_163)"/>
<defs>
<linearGradient id="paint0_linear_737_163" x1="47.4814" y1="18.4" x2="47.4814" y2="71.1896" gradientUnits="userSpaceOnUse">
<stop stop-color="#F7931A"/>
<stop offset="1" stop-color="#FFE15A"/>
</linearGradient>
<linearGradient id="paint1_linear_737_163" x1="45.9271" y1="32.1264" x2="45.9271" y2="59.5424" gradientUnits="userSpaceOnUse">
<stop stop-color="#F7931A"/>
<stop offset="1" stop-color="#FFE15A"/>
</linearGradient>
<linearGradient id="paint2_linear_737_163" x1="42.0065" y1="41.8232" x2="42.0065" y2="62.0632" gradientUnits="userSpaceOnUse">
<stop stop-color="#F7931A"/>
<stop offset="1" stop-color="#FFE15A"/>
</linearGradient>
<linearGradient id="paint3_linear_737_163" x1="39.3533" y1="50.5632" x2="39.3533" y2="64.8232" gradientUnits="userSpaceOnUse">
<stop stop-color="#F7931A"/>
<stop offset="1" stop-color="#FFE15A"/>
</linearGradient>
<linearGradient id="paint4_linear_737_163" x1="36.9685" y1="58.236" x2="36.9685" y2="67.4544" gradientUnits="userSpaceOnUse">
<stop stop-color="#F7931A"/>
<stop offset="1" stop-color="#FFE15A"/>
</linearGradient>
</defs>
</svg>
